:SAMPLES-PER-SECOND 30
:FULLY-SPECIFIED
:DEGREES
257
root  4.39946 38.7834 3.80683 160.644 81.3137 161.451
RightUpLeg  5.25523 -12.9254 -5.16654
RightLeg  18.5339 8.7586 4.66699
RightFoot  -19.0588 -0.580501 -6.71299
RightToes  -1.33073e-015 0 -3.6325e-017
Spine  -7.07535 0.652878 5.56485
Spine1  14.509 1.32858 -2.96584
HEad  -0.0593836 -1.09144 -2.91596
LeftShoulder1  -0.172163 3.99308 -29.0482
LeftArm  -9.5579 7.22219 -34.7056
LeftForeArm  56.1275 -78.6862 -75.7413
LeftHand  0.00609651 3.85073 -2.14726
RightShoulder  -0.186958 -4.07888 24.758
RightArm  -13.2967 -14.2868 37.653
RightForeArm  111.687 74.3446 135.276
RightHand  -0.070692 -3.09749 -2.81697
LeftUpLeg  -19.2383 -2.7407 -2.90485
LeftLeg  -4.01662 -0.575004 1.08826
LeftFoot  -0.4479 0.649021 -6.72631
LeftToes  -1.03319e-009 7.52634e-011 -3.26162e-012
258
root  5.72439 38.4606 3.56159 160.667 81.1685 161.304
RightUpLeg  7.28094 -13.3334 -5.89784
RightLeg  19.1901 9.40019 4.69312
RightFoot  -21.5189 -0.662593 -5.79604
RightToes  -1.33073e-015 0 -3.6325e-017
Spine  -7.74431 0.506246 5.4195
Spine1  14.5153 1.45946 -3.78529
HEad  -0.00837419 -0.940552 -2.10713
LeftShoulder1  -0.10036 3.79334 -28.3443
LeftArm  -9.64174 7.51769 -34.7425
LeftForeArm  56.8 -78.7185 -76.4611
LeftHand  0.00701883 3.66603 -1.79176
RightShoulder  -0.248365 -4.25478 25.6793
RightArm  -13.0243 -14.5166 37.3726
RightForeArm  111.991 74.3683 135.251
RightHand  -0.0659727 -3.30203 -2.75801
LeftUpLeg  -19.6524 -3.31798 -3.58819
LeftLeg  -2.7502 2.28753 0.764115
LeftFoot  0.4589 0.670891 -6.60377
LeftToes  -1.03319e-009 7.52634e-011 -3.26162e-012
259
root  7.03089 38.1905 3.31362 158.054 80.8015 158.478
RightUpLeg  9.34128 -13.6225 -7.04221
RightLeg  19.5699 9.86891 4.46955
RightFoot  -23.3461 -0.646538 -4.64533
RightToes  -1.33073e-015 0 -3.6325e-017
Spine  -8.48449 0.44393 4.52661
Spine1  14.9876 1.78745 -4.45556
HEad  -0.249307 -1.22088 -1.44762
LeftShoulder1  -0.00246333 3.51097 -27.8123
LeftArm  -9.31229 7.40741 -34.9849
LeftForeArm  56.5604 -78.7059 -75.9268
LeftHand  0.00733651 3.65752 -1.86649
RightShoulder  -0.289514 -4.37742 25.9077
RightArm  -12.9802 -15.6414 37.1247
RightForeArm  112.523 73.8958 136.772
RightHand  -0.044803 -4.27633 -2.44386
LeftUpLeg  -20.5744 -4.55303 -4.87457
LeftLeg  1.77154 3.80458 1.05822
LeftFoot  5.11511 0.138408 -1.35079
LeftToes  -1.03319e-009 7.52634e-011 -3.26162e-012
260
root  8.4072 37.9669 3.03737 150.12 80.9317 150.809
RightUpLeg  11.4973 -13.0742 -8.85922
RightLeg  20.7767 10.6243 4.36474
RightFoot  -24.5757 -0.46802 -2.61391
RightToes  -1.33073e-015 0 -3.6325e-017
Spine  -8.82388 0.600896 2.70851
Spine1  15.4173 2.16409 -4.34957
HEad  -0.234153 -1.1088 -1.46234
LeftShoulder1  -0.106949 3.81535 -28.2052
LeftArm  -8.72574 7.27367 -34.392
LeftForeArm  57.6739 -78.7574 -77.1532
LeftHand  0.00545688 3.8207 -1.9195
RightShoulder  -0.278003 -4.33946 25.97
RightArm  -12.7941 -16.518 36.826
RightForeArm  112.037 73.9666 136.476
RightHand  -0.0532093 -3.95269 -2.89944
LeftUpLeg  -21.0541 -5.27077 -6.23802
LeftLeg  5.99557 4.3595 1.25865
LeftFoot  11.5566 -0.547179 2.45121
LeftToes  -1.03319e-009 7.52634e-011 -3.26162e-012
261
root  9.83378 37.7215 2.7752 138.875 80.3625 140.191
RightUpLeg  12.891 -11.4831 -11.3498
RightLeg  24.4273 10.2859 4.7795
RightFoot  -25.3462 -0.10785 0.46701
RightToes  -1.33073e-015 0 -3.6325e-017
Spine  -8.75638 0.549103 -0.383017
Spine1  15.569 2.27573 -3.68259
HEad  -0.126471 -0.685125 -0.8729
LeftShoulder1  -0.129017 3.87932 -28.1752
LeftArm  -8.29698 7.94716 -33.9393
LeftForeArm  58.456 -78.7902 -78.3426
LeftHand  0.00173172 4.03704 -1.64818
RightShoulder  -0.348774 -4.53369 26.7649
RightArm  -12.0235 -16.5295 36.3751
RightForeArm  109.16 74.4991 134.326
RightHand  -0.0430824 -4.91126 -4.30449
LeftUpLeg  -21.4751 -5.17751 -8.26908
LeftLeg  12.4074 4.28525 1.34407
LeftFoot  10.939 -0.846821 3.98464
LeftToes  -1.03319e-009 7.52634e-011 -3.26162e-012
262
root  11.1127 37.5844 2.47373 136.331 78.7362 138.109
RightUpLeg  12.77 -10.6952 -13.5519
RightLeg  30.4648 10.0081 6.10876
RightFoot  -23.7319 0.487156 6.22479
RightToes  -1.33073e-015 0 -3.6325e-017
Spine  -8.22119 -0.363315 -3.13554
Spine1  15.3379 1.33951 -3.16087
HEad  0.737984 -0.259512 -1.24373
LeftShoulder1  -0.232235 4.16985 -28.6839
LeftArm  -8.06858 8.48108 -33.4403
LeftForeArm  56.1391 -78.6856 -75.8504
LeftHand  0.00603187 3.65331 -1.54231
RightShoulder  -0.390383 -4.64104 27.3195
RightArm  -11.6891 -16.613 36.5116
RightForeArm  107.821 75.1964 131.685
RightHand  -0.0516592 -4.00118 -3.31685
LeftUpLeg  -21.3308 -5.60513 -10.452
LeftLeg  17.611 3.89027 1.7141
LeftFoot  7.13746 -0.872151 5.08549
LeftToes  -1.03319e-009 7.52634e-011 -3.26162e-012
263
root  12.2101 37.6754 2.15317 131.578 78.3681 133.912
RightUpLeg  10.0885 -9.39265 -15.4231
RightLeg  39.0476 9.99734 8.28813
RightFoot  -17.1301 0.525638 13.1068
RightToes  -1.33073e-015 0 -3.6325e-017
Spine  -7.2583 -0.64422 -4.24756
Spine1  15.3132 1.05825 -3.78334
HEad  0.773466 0.447508 -2.01566
LeftShoulder1  -0.263473 4.24451 -29.437
LeftArm  -7.94081 8.96374 -32.7994
LeftForeArm  53.3331 -78.5367 -73.1335
LeftHand  0.00908235 3.37104 -1.52231
RightShoulder  -0.336951 -4.49513 26.8593
RightArm  -11.4866 -17.1019 37.0735
RightForeArm  106.928 75.78 129.286
RightHand  -0.0811467 -1.36693 -2.03179
LeftUpLeg  -19.453 -5.68764 -11.7458
LeftLeg  19.1245 4.67374 2.12523
LeftFoot  4.53217 -0.820765 5.67167
LeftToes  -1.03319e-009 7.52634e-011 -3.26162e-012
